<?xml version="1.0" encoding="utf-8"?>
<!-- Generator: Adobe Illustrator 19.0.0, SVG Export Plug-In . SVG Version: 6.00 Build 0)  -->
<svg version="1.1" id="Layer_1" xmlns="http://www.w3.org/2000/svg" xmlns:xlink="http://www.w3.org/1999/xlink" x="0px" y="0px"
	 viewBox="0 0 1746 108.8" style="enable-background:new 0 0 1746 108.8;" xml:space="preserve">
<g id="XMLID_2_">
	<path id="XMLID_3_" d="M15.5,3.7L26,65.3L36.4,3.7H52v80.8H40.6V33.3L32,84.5H19.8l-8.1-50.8v50.8H0V3.7H15.5z"/>
	<path id="XMLID_5_" d="M97.2,20.4c3.1,0,5.6,0.3,7.8,0.9c2.1,0.6,3.8,1.7,5.1,3.2c1.3,1.5,2.3,3.5,2.9,6.1c0.6,2.6,0.9,5.8,0.9,9.7
		v44.3h-39c-2.1,0-4.1-0.5-5.8-1.5c-1.8-1-3.3-2.4-4.6-4.2c-1.3-1.8-2.3-3.9-3-6.3c-0.7-2.4-1.1-5.1-1.1-8c0-2.8,0.4-5.4,1.1-7.9
		c0.7-2.5,1.7-4.6,3-6.5c1.3-1.8,2.8-3.3,4.6-4.3c1.8-1,3.7-1.6,5.8-1.6h23.5v-5.5c0-3.3-0.4-5.6-1.3-6.7c-0.9-1.1-2.5-1.7-4.7-1.7
		H68.5V20.4H97.2z M85.8,54.2c-2.1,0-3.8,0.2-5.1,0.5c-1.3,0.3-2.4,0.9-3.1,1.6c-0.8,0.8-1.3,1.8-1.6,3c-0.3,1.2-0.5,2.7-0.5,4.4
		c0,7.3,1.3,10.9,4,10.9h18.8V54.2H85.8z"/>
	<path id="XMLID_8_" d="M136.6,0v42.6h1l19.5-22.2h16.2l-25.2,29.4l27.6,34.7h-18l-20.3-26.9h-0.8v26.9h-15.7V0H136.6z"/>
	<path id="XMLID_10_" d="M221.9,20.4c4.2,0,7.5,1.5,10,4.6c2.5,3,3.7,7.8,3.7,14.4s-1.1,11.3-3.4,14.2c-2.3,2.9-5.7,4.3-10.3,4.3
		h-23.1v5.7c0,2.4,0.1,4.3,0.4,5.8c0.2,1.5,0.6,2.6,1.3,3.3c0.6,0.8,1.4,1.3,2.4,1.5c1,0.2,2.3,0.3,3.9,0.3h23.4v9.9h-30.4
		c-2.9,0-5.4-0.4-7.5-1.1c-2.1-0.7-3.8-1.9-5.1-3.6c-1.3-1.6-2.3-3.8-2.9-6.4c-0.6-2.7-1-6-1-9.9V41.3c0-3.9,0.3-7.1,1-9.8
		c0.6-2.7,1.6-4.8,2.9-6.5c1.3-1.6,3-2.8,5.1-3.5c2.1-0.7,4.6-1.1,7.5-1.1H221.9z M198.8,48.7h16.8c1.1,0,2-0.1,2.8-0.3
		c0.8-0.2,1.4-0.6,1.9-1.3c0.5-0.7,0.8-1.6,1-2.8c0.2-1.2,0.3-2.9,0.3-5c0-2-0.1-3.6-0.3-4.8c-0.2-1.2-0.5-2-0.9-2.6
		c-0.4-0.6-1-1-1.8-1.1c-0.8-0.2-1.8-0.3-3-0.3h-10.7c-1.2,0-2.2,0.2-3,0.5c-0.8,0.3-1.4,0.9-1.9,1.7c-0.5,0.8-0.8,1.9-1,3.3
		c-0.2,1.4-0.3,3.1-0.3,5.1V48.7z"/>
	<path id="XMLID_13_" d="M319.4,20.4l13.8,41.7h0.5l13.9-41.7h13.2l-32.1,88.4h-13.8l10.4-26l-22.7-62.4H319.4z"/>
	<path id="XMLID_15_" d="M403.4,20.4c2.9,0,5.3,0.4,7.4,1.1c2.1,0.7,3.8,1.9,5.1,3.5c1.4,1.6,2.4,3.8,3,6.5c0.7,2.7,1,5.9,1,9.8
		v22.2c0,3.9-0.3,7.2-0.9,9.9c-0.6,2.7-1.6,4.8-3,6.4c-1.4,1.6-3.1,2.8-5.2,3.6c-2.1,0.7-4.6,1.1-7.5,1.1H382c-3,0-5.6-0.4-7.7-1.1
		c-2.1-0.7-3.9-1.9-5.2-3.6c-1.3-1.6-2.3-3.8-2.9-6.4c-0.6-2.7-0.9-6-0.9-9.9V41.3c0-3.9,0.3-7.1,0.9-9.8c0.6-2.7,1.6-4.8,2.9-6.5
		c1.3-1.6,3.1-2.8,5.2-3.5c2.1-0.7,4.7-1.1,7.7-1.1H403.4z M381,63.3c0,4,0.5,6.9,1.4,8.7c0.9,1.8,2.5,2.6,4.8,2.6h11
		c2.3,0,3.9-0.9,4.8-2.6c0.9-1.8,1.3-4.6,1.3-8.5V41.3c0-3.8-0.4-6.5-1.3-8.3c-0.9-1.7-2.5-2.5-4.8-2.5h-11c-2.3,0-3.9,0.9-4.8,2.5
		c-0.9,1.7-1.4,4.5-1.4,8.3V63.3z"/>
	<path id="XMLID_18_" d="M442.9,20.4v43.3c0,2.3,0.1,4.1,0.3,5.5c0.2,1.4,0.5,2.5,1,3.3c0.4,0.8,1,1.3,1.8,1.7
		c0.8,0.3,1.8,0.4,3,0.4h15.5V20.4H480v64.1h-36c-3,0-5.5-0.3-7.6-1c-2.1-0.6-3.8-1.7-5.1-3.2c-1.3-1.5-2.3-3.5-2.9-6
		c-0.6-2.5-0.9-5.7-0.9-9.5V20.4H442.9z"/>
	<path id="XMLID_20_" d="M539,30.5h-23.4c-1.9,0-3.5,0.1-4.8,0.4c-1.2,0.2-2.2,0.8-2.9,1.5c-0.7,0.8-1.2,2-1.4,3.6
		c-0.2,1.6-0.4,3.7-0.4,6.3v42.2h-15.5V39.9c0-6.9,1.8-11.8,5.5-14.9c3.6-3.1,9-4.6,16.3-4.6H539V30.5z"/>
	<path id="XMLID_22_" d="M647,20.4c2.9,0,5.4,0.4,7.5,1.1c2.1,0.7,3.9,1.9,5.3,3.5c1.4,1.6,2.4,3.8,3,6.5c0.7,2.7,1,6,1,9.9v22.1
		c0,3.9-0.3,7.2-0.9,9.9c-0.6,2.7-1.6,4.8-3,6.4c-1.3,1.6-3.1,2.8-5.2,3.6c-2.1,0.7-4.7,1.1-7.7,1.1h-21.3v24.3h-15.4V20.4H647z
		 M625.7,74.6h16.4c1.1,0,2.1-0.1,2.9-0.4c0.8-0.3,1.4-0.8,1.9-1.6c0.5-0.8,0.8-1.8,1-3.1c0.2-1.3,0.3-3,0.3-5V39.9
		c0-2.3-0.2-4-0.5-5.3c-0.3-1.3-0.9-2.2-1.8-2.8c-0.9-0.6-2.1-1-3.6-1.1c-1.5-0.1-3.5-0.2-5.8-0.2h-10.8V74.6z"/>
	<path id="XMLID_25_" d="M722.3,30.5h-23.4c-1.9,0-3.5,0.1-4.8,0.4c-1.2,0.2-2.2,0.8-2.9,1.5c-0.7,0.8-1.2,2-1.4,3.6
		c-0.2,1.6-0.4,3.7-0.4,6.3v42.2H674V39.9c0-6.9,1.8-11.8,5.5-14.9c3.6-3.1,9-4.6,16.3-4.6h26.6V30.5z"/>
	<path id="XMLID_27_" d="M770,20.4c2.9,0,5.3,0.4,7.4,1.1c2.1,0.7,3.8,1.9,5.1,3.5c1.4,1.6,2.4,3.8,3.1,6.5c0.7,2.7,1,5.9,1,9.8
		v22.2c0,3.9-0.3,7.2-1,9.9c-0.6,2.7-1.6,4.8-3,6.4c-1.4,1.6-3.1,2.8-5.2,3.6c-2.1,0.7-4.6,1.1-7.5,1.1h-21.4c-3,0-5.6-0.4-7.7-1.1
		c-2.1-0.7-3.9-1.9-5.2-3.6c-1.3-1.6-2.3-3.8-2.9-6.4c-0.6-2.7-0.9-6-0.9-9.9V41.3c0-3.9,0.3-7.1,0.9-9.8c0.6-2.7,1.6-4.8,2.9-6.5
		c1.3-1.6,3.1-2.8,5.2-3.5c2.1-0.7,4.7-1.1,7.7-1.1H770z M747.6,63.3c0,4,0.4,6.9,1.3,8.7c0.9,1.8,2.5,2.6,4.8,2.6h11
		c2.3,0,3.9-0.9,4.8-2.6c0.9-1.8,1.3-4.6,1.3-8.5V41.3c0-3.8-0.4-6.5-1.3-8.3c-0.9-1.7-2.5-2.5-4.8-2.5h-11c-2.3,0-3.8,0.9-4.8,2.5
		c-0.9,1.7-1.3,4.5-1.3,8.3V63.3z"/>
	<path id="XMLID_30_" d="M830.3,20.4c2.9,0,5.4,0.4,7.5,1.1c2.1,0.7,3.9,1.9,5.3,3.5c1.4,1.6,2.4,3.8,3,6.5c0.7,2.7,1,6,1,9.9v22.1
		c0,3.9-0.3,7.2-1,9.9c-0.6,2.7-1.6,4.8-2.9,6.4c-1.3,1.6-3.1,2.8-5.2,3.6c-2.1,0.7-4.7,1.1-7.7,1.1H809v24.3h-15.4V20.4H830.3z
		 M809,74.6h16.4c1.1,0,2.1-0.1,2.9-0.4c0.8-0.3,1.4-0.8,1.9-1.6c0.5-0.8,0.8-1.8,1-3.1c0.2-1.3,0.3-3,0.3-5V39.9
		c0-2.3-0.2-4-0.5-5.3c-0.3-1.3-0.9-2.2-1.8-2.8c-0.9-0.6-2.1-1-3.6-1.1c-1.5-0.1-3.5-0.2-5.8-0.2H809V74.6z"/>
	<path id="XMLID_33_" d="M894,20.4c4.2,0,7.5,1.5,10,4.6c2.5,3,3.7,7.8,3.7,14.4s-1.1,11.3-3.5,14.2c-2.3,2.9-5.7,4.3-10.3,4.3
		h-23.1v5.7c0,2.4,0.1,4.3,0.3,5.8c0.2,1.5,0.7,2.6,1.3,3.3c0.6,0.8,1.4,1.3,2.5,1.5c1,0.2,2.3,0.3,3.9,0.3h23.4v9.9h-30.4
		c-2.9,0-5.4-0.4-7.5-1.1c-2.1-0.7-3.8-1.9-5.1-3.6c-1.3-1.6-2.3-3.8-3-6.4c-0.6-2.7-0.9-6-0.9-9.9V41.3c0-3.9,0.3-7.1,0.9-9.8
		c0.6-2.7,1.6-4.8,3-6.5c1.3-1.6,3-2.8,5.1-3.5c2.1-0.7,4.6-1.1,7.5-1.1H894z M870.9,48.7h16.8c1.1,0,2-0.1,2.8-0.3
		c0.8-0.2,1.4-0.6,1.9-1.3c0.5-0.7,0.8-1.6,1-2.8c0.2-1.2,0.3-2.9,0.3-5c0-2-0.1-3.6-0.3-4.8c-0.2-1.2-0.5-2-0.9-2.6
		c-0.4-0.6-1-1-1.8-1.1c-0.8-0.2-1.8-0.3-3-0.3H877c-1.2,0-2.2,0.2-3,0.5c-0.8,0.3-1.4,0.9-1.9,1.7c-0.5,0.8-0.8,1.9-1,3.3
		c-0.2,1.4-0.3,3.1-0.3,5.1V48.7z"/>
	<path id="XMLID_36_" d="M966.7,30.5h-23.4c-1.9,0-3.5,0.1-4.8,0.4c-1.2,0.2-2.2,0.8-2.9,1.5c-0.7,0.8-1.2,2-1.4,3.6
		c-0.2,1.6-0.3,3.7-0.3,6.3v42.2h-15.5V39.9c0-6.9,1.8-11.8,5.4-14.9c3.6-3.1,9.1-4.6,16.3-4.6h26.6V30.5z"/>
	<path id="XMLID_38_" d="M1008.9,3.7v16.7h20.1v10.1h-20.1v34.9c0,2.2,0.1,3.9,0.3,5.1c0.2,1.2,0.6,2.2,1.4,2.8
		c0.8,0.6,1.9,1,3.4,1.1c1.5,0.1,3.6,0.2,6.4,0.2v9.9h-10.4c-3.3,0-6.1-0.3-8.2-0.8c-2.1-0.5-3.8-1.4-5.1-2.7
		c-1.3-1.3-2.2-3-2.7-5.2c-0.5-2.2-0.8-5-0.8-8.4v-37h-14.9V20.4h14.9V3.7H1008.9z"/>
	<path id="XMLID_40_" d="M1052.6,20.4l13.8,41.7h0.5l13.9-41.7h13.2l-32.1,88.4h-13.8l10.4-26l-22.7-62.4H1052.6z"/>
	<path id="XMLID_42_" d="M1209.6,20.4v10.1h-30.7c-1.7,0-3.1,0.6-4,1.7c-1,1.1-1.5,3.1-1.5,5.9c0,5.1,1.8,7.6,5.5,7.6h21.1
		c2.3,0,4.3,0.5,6,1.5c1.7,1,3.2,2.3,4.4,3.9c1.2,1.6,2.1,3.6,2.8,5.8c0.6,2.2,1,4.7,1,7.3c0,6.5-1.2,11.5-3.7,15.1
		c-2.5,3.6-6.1,5.3-11,5.3H1162v-9.9h34.1c1.3,0,2.4-0.7,3.2-2c0.8-1.3,1.2-3.4,1.2-6.2c0-2.8-0.4-4.8-1.2-6.1
		c-0.8-1.3-1.9-1.9-3.2-1.9h-21.9c-2.4,0-4.5-0.5-6.3-1.5c-1.8-1-3.3-2.3-4.5-4c-1.2-1.7-2-3.8-2.6-6.2c-0.6-2.4-0.9-4.9-0.9-7.6
		c0-5.9,1.3-10.5,3.8-13.8c2.5-3.3,6.4-5,11.7-5H1209.6z"/>
	<path id="XMLID_44_" d="M1253.3,3.7v16.7h20.1v10.1h-20.1v34.9c0,2.2,0.1,3.9,0.3,5.1c0.2,1.2,0.6,2.2,1.4,2.8
		c0.8,0.6,1.9,1,3.4,1.1c1.5,0.1,3.6,0.2,6.4,0.2v9.9h-10.4c-3.3,0-6.1-0.3-8.2-0.8c-2.1-0.5-3.8-1.4-5.1-2.7
		c-1.3-1.3-2.2-3-2.7-5.2c-0.5-2.2-0.8-5-0.8-8.4v-37h-14.9V20.4h14.9V3.7H1253.3z"/>
	<path id="XMLID_46_" d="M1319.2,20.4c3.1,0,5.7,0.3,7.8,0.9c2.1,0.6,3.8,1.7,5.2,3.2c1.3,1.5,2.3,3.5,2.9,6.1
		c0.6,2.6,0.9,5.8,0.9,9.7v44.3h-39c-2.1,0-4.1-0.5-5.8-1.5c-1.8-1-3.3-2.4-4.6-4.2c-1.3-1.8-2.3-3.9-3-6.3c-0.7-2.4-1-5.1-1-8
		c0-2.8,0.4-5.4,1-7.9c0.7-2.5,1.7-4.6,3-6.5c1.3-1.8,2.8-3.3,4.6-4.3c1.8-1,3.7-1.6,5.8-1.6h23.5v-5.5c0-3.3-0.5-5.6-1.3-6.7
		c-0.9-1.1-2.5-1.7-4.7-1.7h-23.9V20.4H1319.2z M1307.8,54.2c-2.1,0-3.8,0.2-5.1,0.5c-1.3,0.3-2.4,0.9-3.1,1.6
		c-0.8,0.8-1.3,1.8-1.6,3c-0.3,1.2-0.4,2.7-0.4,4.4c0,7.3,1.3,10.9,4,10.9h18.8V54.2H1307.8z"/>
	<path id="XMLID_49_" d="M1379.8,20.4c3,0,5.6,0.3,7.7,0.9c2.1,0.6,3.8,1.7,5.1,3.2c1.3,1.5,2.3,3.5,2.9,6.1
		c0.6,2.6,0.9,5.8,0.9,9.7v44.3H1381V41.3c0-2.1-0.1-3.9-0.3-5.3s-0.5-2.5-1-3.3c-0.5-0.8-1.1-1.4-1.9-1.7c-0.8-0.3-1.7-0.5-2.8-0.5
		h-15.4v54h-15.5V20.4H1379.8z"/>
	<path id="XMLID_51_" d="M1457.2,0v84.5h-35c-2.9,0-5.5-0.4-7.6-1.3c-2.1-0.8-3.8-2.2-5.1-4c-1.3-1.8-2.3-4.1-3-7
		c-0.6-2.8-1-6.3-1-10.3V42.8c0-4,0.3-7.4,1-10.3c0.6-2.8,1.6-5.1,3-6.9c1.3-1.8,3-3.1,5.1-4c2.1-0.8,4.6-1.3,7.6-1.3h19.5V0H1457.2
		z M1420.8,56.6c0,4,0.2,7.2,0.5,9.6c0.3,2.4,0.9,4.2,1.8,5.4c0.8,1.3,2,2.1,3.5,2.5c1.5,0.4,3.3,0.5,5.6,0.5h9.6V30.5h-14.6
		c-1.1,0-2.1,0.1-2.9,0.5c-0.8,0.3-1.5,0.9-2,1.7c-0.5,0.8-0.9,2-1.1,3.4c-0.2,1.4-0.3,3.2-0.3,5.4V56.6z"/>
	<path id="XMLID_54_" d="M1564.3,20.4c2.9,0,5.3,0.4,7.4,1.1c2.1,0.7,3.8,1.9,5.1,3.5c1.4,1.6,2.4,3.8,3.1,6.5c0.7,2.7,1,5.9,1,9.8
		v22.2c0,3.9-0.3,7.2-1,9.9c-0.6,2.7-1.6,4.8-3,6.4c-1.4,1.6-3.1,2.8-5.2,3.6c-2.1,0.7-4.6,1.1-7.5,1.1h-21.4c-3,0-5.6-0.4-7.7-1.1
		c-2.1-0.7-3.9-1.9-5.2-3.6c-1.3-1.6-2.3-3.8-2.9-6.4c-0.6-2.7-0.9-6-0.9-9.9V41.3c0-3.9,0.3-7.1,0.9-9.8c0.6-2.7,1.6-4.8,2.9-6.5
		c1.3-1.6,3.1-2.8,5.2-3.5c2.1-0.7,4.7-1.1,7.7-1.1H1564.3z M1541.9,63.3c0,4,0.4,6.9,1.3,8.7c0.9,1.8,2.5,2.6,4.8,2.6h11
		c2.3,0,3.9-0.9,4.8-2.6c0.9-1.8,1.3-4.6,1.3-8.5V41.3c0-3.8-0.4-6.5-1.3-8.3c-0.9-1.7-2.5-2.5-4.8-2.5h-11c-2.3,0-3.8,0.9-4.8,2.5
		c-0.9,1.7-1.3,4.5-1.3,8.3V63.3z"/>
	<path id="XMLID_57_" d="M1603.8,20.4v43.3c0,2.3,0.1,4.1,0.3,5.5c0.2,1.4,0.5,2.5,1,3.3c0.4,0.8,1,1.3,1.8,1.7
		c0.8,0.3,1.8,0.4,3,0.4h15.5V20.4h15.5v64.1h-36c-3,0-5.5-0.3-7.6-1c-2.1-0.6-3.8-1.7-5.1-3.2c-1.3-1.5-2.3-3.5-2.9-6
		c-0.6-2.5-0.9-5.7-0.9-9.5V20.4H1603.8z"/>
	<path id="XMLID_59_" d="M1681,3.7v16.7h20.1v10.1H1681v34.9c0,2.2,0.1,3.9,0.3,5.1c0.2,1.2,0.6,2.2,1.4,2.8c0.8,0.6,1.9,1,3.4,1.1
		c1.5,0.1,3.6,0.2,6.4,0.2v9.9H1682c-3.3,0-6.1-0.3-8.2-0.8c-2.1-0.5-3.8-1.4-5.1-2.7c-1.3-1.3-2.2-3-2.7-5.2
		c-0.5-2.2-0.8-5-0.8-8.4v-37h-14.9V20.4h14.9V3.7H1681z"/>
	<path id="XMLID_61_" d="M1746,3.7v59.2h-18.3V3.7H1746z M1746,71.1v13.4h-18.3V71.1H1746z"/>
</g>
</svg>
