<?xml version="1.0" encoding="utf-8"?>
<!-- Generator: Adobe Illustrator 19.0.0, SVG Export Plug-In . SVG Version: 6.00 Build 0)  -->
<svg version="1.1" id="Layer_1" xmlns="http://www.w3.org/2000/svg" xmlns:xlink="http://www.w3.org/1999/xlink" x="0px" y="0px"
	 viewBox="0 0 657.3 268.7" style="enable-background:new 0 0 657.3 268.7;" xml:space="preserve">
<style type="text/css">
	.st0{display:none;stroke:#0D1C42;stroke-width:8;stroke-miterlimit:10;}
	.st1{fill:none;stroke:#FFFFFF;stroke-width:16;stroke-miterlimit:10;}
	.st2{stroke:#000000;stroke-width:40;stroke-miterlimit:10;}
	.st3{stroke:#000000;stroke-width:10;stroke-miterlimit:10;}
	.st4{fill:none;stroke:#0071BC;stroke-width:16;stroke-miterlimit:10;}
	.st5{display:none;fill:none;stroke:#000000;stroke-miterlimit:10;}
	.st6{fill:none;stroke:#000000;stroke-width:25;stroke-miterlimit:10;}
	.st7{stroke:#000000;stroke-width:16;stroke-miterlimit:10;}
	.st8{fill:none;stroke:#FFFFFF;stroke-width:8;stroke-miterlimit:10;}
	.st9{fill:#FFFFFF;}
	.st10{fill:#FFFFFF;stroke:#FFFFFF;stroke-width:2;stroke-miterlimit:10;}
	.st11{fill:none;stroke:#FFFFFF;stroke-width:2;stroke-miterlimit:10;}
</style>
<g id="XMLID_97_">
	<path id="XMLID_122_" class="st0" d="M489.3,109.4l46.6,1.7c0.1,0,0.3,0,0.4,0l0.6-0.1c2.7-0.4,2.8-4.2,0.1-4.7l-0.9-0.2
		c-0.2,0-0.4-0.1-0.6,0l-46.3,2.5V109.4z"/>
	<path id="XMLID_121_" class="st1" d="M438.6,197.4H218.5c-8.9,0-16.3-7.3-16.3-16.3v-95c0-8.9,7.3-16.3,16.3-16.3h220.1
		c8.9,0,16.3,7.3,16.3,16.3v95C454.9,190.1,447.5,197.4,438.6,197.4z"/>
	<circle id="WHITE_CIRCLE_BLOCKOUT_2_" class="st2" cx="329.2" cy="134.9" r="78.7"/>
	<polygon id="XMLID_120_" class="st3" points="181,112.4 228.3,114 242.9,111.9 228,108.9 181,111.5 	"/>
	<polygon id="XMLID_119_" class="st3" points="478,112.4 431.1,114 416.8,111.9 431.3,108.9 478,111.5 	"/>
	<circle id="XMLID_118_" class="st4" cx="329.2" cy="134.9" r="78.7"/>
	<circle id="XMLID_117_" class="st5" cx="329.3" cy="134.9" r="73.3"/>
	<path id="XMLID_116_" class="st6" d="M362.6,135.3H490l-1.7-15.2c-0.1-0.5-0.5-0.9-1-0.9h-7.5c-0.5,0-0.9,0.3-0.9,0.8l-1.6,7.4
		l-70.2-3.6l-53.9-11.7"/>
	<path id="Left_blade_3_" class="st7" d="M171,113.5c1.6,0,8.3-0.1,8.3-0.1s-0.1-4-0.7-5.1c-1-1.8-4.3-3.1-6.6,0.3
		C171.2,109.7,171,113.5,171,113.5z"/>
	<path id="XMLID_115_" class="st6" d="M296.2,135.3H168.8l1.7-15.2c0.1-0.5,0.5-0.9,1-0.9h7.6c0.4,0,0.8,0.3,0.8,0.7l1.7,7.5
		l70.2-3.6l53.9-11.7"/>
	<path id="Right_blade_3_" class="st7" d="M480,113.5c1.7,0,5.7,0,7.2-0.1c0.3,0,0.6-0.3,0.6-0.6c-0.1-1.2-0.2-3.7-0.7-4.5
		c-1-1.8-4.3-3.1-6.6,0.3c-0.6,0.8-0.8,3.3-0.9,4.4C479.5,113.3,479.7,113.5,480,113.5z"/>
	<path id="XMLID_114_" class="st8" d="M362.6,135.1H490l-1.7-15.2c-0.1-0.5-0.5-0.9-1-0.9h-7.5c-0.5,0-0.9,0.3-1,0.8l-1.6,7.5
		l-70.2-3.6l-53.9-11.8"/>
	<path id="XMLID_113_" class="st8" d="M296.2,135.1H168.8l1.7-15.2c0.1-0.5,0.5-0.9,1-0.9h7.6c0.4,0,0.8,0.3,0.8,0.7l1.7,7.6
		l70.2-3.6l53.9-11.8"/>
	<path id="XMLID_112_" class="st9" d="M170.5,119.9l-1.7,15.2l125.5-0.2l6.6-21.9l-49.1,10.8l-70.2,3.6l-1.7-7.6
		c-0.1-0.4-0.4-0.7-0.8-0.7h-7.6C170.9,119,170.5,119.4,170.5,119.9z"/>
	<path id="XMLID_111_" class="st9" d="M488.6,119.9l1.7,15.2l-125.5-0.2l-6.6-21.9l49.1,10.8l70.2,3.6l1.6-7.5
		c0.1-0.4,0.5-0.8,1-0.8h7.5C488.1,119,488.5,119.4,488.6,119.9z"/>
	<circle id="XMLID_110_" class="st8" cx="329.2" cy="134.9" r="33.3"/>
	<polyline id="XMLID_109_" points="331.4,170.8 330.8,166.7 315.3,164.6 306.7,158.3 303,158.3 	"/>
	<path id="XMLID_108_" class="st10" d="M354.3,158.9l-2.9,8.9c-0.6,2-2.5,3.3-4.5,3.3h-20.7l0.7-4.3l15.5-1.8l8.6-6.1H354.3z"/>
	<circle id="XMLID_107_" class="st11" cx="329.2" cy="134.8" r="28.7"/>
	<path id="XMLID_106_" class="st10" d="M303.5,158.9l2.9,8.9c0.6,2,2.5,3.3,4.5,3.3h20.7l-0.7-4.3l-15.5-1.8l-8.6-6.1H303.5z"/>
	<path id="XMLID_105_" class="st10" d="M354.9,110.7l-2.9-8.9c-0.6-2-2.5-3.3-4.5-3.3h-20.7l0.7,4.3l15.5,1.8l8.6,6.1H354.9z"/>
	<path id="XMLID_104_" class="st10" d="M304,110.7l2.9-8.9c0.6-2,2.5-3.3,4.5-3.3h20.7l-0.7,4.3l-15.5,1.8l-8.6,6.1H304z"/>
	<path id="XMLID_103_" class="st10" d="M171.4,113.5c1.8,0,6.2-0.1,7.5-0.1c0.2,0,0.4-0.2,0.4-0.4c0-1-0.2-3.9-0.7-4.8
		c-1-1.8-4.3-3.1-6.6,0.3c-0.6,0.8-0.8,3.4-0.9,4.5C171,113.3,171.2,113.5,171.4,113.5z"/>
	<path id="XMLID_102_" class="st10" d="M480,113.5c1.7,0,5.7,0,7.2-0.1c0.3,0,0.6-0.3,0.6-0.6c-0.1-1.2-0.2-3.7-0.7-4.5
		c-1-1.8-4.3-3.1-6.6,0.3c-0.6,0.8-0.8,3.3-0.9,4.4C479.5,113.3,479.7,113.5,480,113.5z"/>
	<path id="XMLID_101_" class="st9" d="M181.2,112.4L228,114c0,0,0,0,0,0l12.8-1.9c0.3,0,0.3-0.5,0-0.5l-13.1-2.6c0,0,0,0-0.1,0
		l-46.5,2.5c-0.1,0-0.3,0.1-0.3,0.3v0.4C181,112.2,181.1,112.4,181.2,112.4z"/>
	<path id="XMLID_100_" class="st9" d="M169.6,109.6l-46.8,1.7c0,0,0,0-0.1,0l-12.8-1.9c-0.3,0-0.3-0.5,0-0.6l13-2.6c0,0,0,0,0.1,0
		l46.5,2.5c0.2,0,0.3,0.1,0.3,0.3v0.3C169.9,109.5,169.8,109.6,169.6,109.6z"/>
	<path id="XMLID_99_" class="st9" d="M477.4,112.4l-46.6,1.6c0,0-0.1,0-0.1,0l-11.7-1.7c-0.5-0.1-0.5-0.8,0-0.9l12-2.4
		c0,0,0.1,0,0.1,0l46.3,2.5c0.2,0,0.4,0.2,0.4,0.5l0,0C477.8,112.2,477.6,112.4,477.4,112.4z"/>
	<path id="XMLID_98_" class="st9" d="M489.4,109.6l46.6,1.6c0,0,0.1,0,0.1,0l11.7-1.7c0.5-0.1,0.5-0.8,0-0.9l-12-2.4
		c0,0-0.1,0-0.1,0l-46.3,2.5c-0.2,0-0.4,0.2-0.4,0.5l0,0C488.9,109.4,489.1,109.6,489.4,109.6z"/>
</g>
</svg>
