<?xml version="1.0" encoding="utf-8"?>
<!-- Generator: Adobe Illustrator 19.0.0, SVG Export Plug-In . SVG Version: 6.00 Build 0)  -->
<svg version="1.1" id="Layer_1" xmlns="http://www.w3.org/2000/svg" xmlns:xlink="http://www.w3.org/1999/xlink" x="0px" y="0px"
	 viewBox="0 0 467.7 234" style="enable-background:new 0 0 467.7 234;" xml:space="preserve">
<style type="text/css">
	.st0{stroke:#0D1C42;stroke-width:8;stroke-miterlimit:10;}
	.st1{fill:none;stroke:#FFFFFF;stroke-width:16;stroke-miterlimit:10;}
	.st2{fill:#0D1C42;stroke:#0D1C42;stroke-width:40;stroke-miterlimit:10;}
	.st3{stroke:#0D1C42;stroke-width:10;stroke-miterlimit:10;}
	.st4{fill:none;stroke:#0071BC;stroke-width:16;stroke-miterlimit:10;}
	.st5{display:none;fill:none;stroke:#000000;stroke-miterlimit:10;}
	.st6{fill:none;stroke:#0D1C42;stroke-width:25;stroke-miterlimit:10;}
	.st7{stroke:#0D1C42;stroke-width:16;stroke-miterlimit:10;}
	.st8{fill:none;stroke:#FFFFFF;stroke-width:8;stroke-miterlimit:10;}
	.st9{fill:#FFFFFF;}
	.st10{fill:#FFFFFF;stroke:#FFFFFF;stroke-width:2;stroke-miterlimit:10;}
	.st11{fill:none;stroke:#FFFFFF;stroke-width:2;stroke-miterlimit:10;}
</style>
<g id="XMLID_97_">
	<path id="XMLID_122_" class="st0" d="M394.3,90l46.6,1.7c0.1,0,0.3,0,0.4,0l0.6-0.1c2.7-0.4,2.8-4.2,0.1-4.7l-0.9-0.2
		c-0.2,0-0.4-0.1-0.6,0l-46.3,2.5V90z"/>
	<path id="XMLID_121_" class="st1" d="M343.6,178H123.5c-8.9,0-16.3-7.3-16.3-16.3v-95c0-8.9,7.3-16.3,16.3-16.3h220.1
		c8.9,0,16.3,7.3,16.3,16.3v95C359.9,170.7,352.5,178,343.6,178z"/>
	<circle id="WHITE_CIRCLE_BLOCKOUT_2_" class="st2" cx="234.2" cy="115.6" r="78.7"/>
	<polygon id="XMLID_120_" class="st3" points="86,93 133.3,94.7 147.9,92.5 133,89.6 86,92.1 	"/>
	<polygon id="XMLID_119_" class="st3" points="383,93 336.1,94.7 321.8,92.5 336.3,89.6 383,92.1 	"/>
	<circle id="XMLID_118_" class="st4" cx="234.2" cy="115.6" r="78.7"/>
	<circle id="XMLID_117_" class="st5" cx="234.3" cy="115.5" r="73.3"/>
	<path id="XMLID_116_" class="st6" d="M267.6,116H395l-1.7-15.2c-0.1-0.5-0.5-0.9-1-0.9h-7.5c-0.5,0-0.9,0.3-0.9,0.8l-1.6,7.4
		l-70.2-3.6l-53.9-11.7"/>
	<path id="Left_blade_3_" class="st7" d="M76,94.2c1.6,0,8.3-0.1,8.3-0.1s-0.1-4-0.7-5.1c-1-1.8-4.3-3.1-6.6,0.3
		C76.2,90.3,76,94.2,76,94.2z"/>
	<path id="XMLID_115_" class="st6" d="M201.2,116H73.8l1.7-15.2c0.1-0.5,0.5-0.9,1-0.9H84c0.4,0,0.8,0.3,0.8,0.7l1.7,7.5l70.2-3.6
		l53.9-11.7"/>
	<path id="Right_blade_3_" class="st7" d="M385,94.2c1.7,0,5.7,0,7.2-0.1c0.3,0,0.6-0.3,0.6-0.6c-0.1-1.2-0.2-3.7-0.7-4.5
		c-1-1.8-4.3-3.1-6.6,0.3c-0.6,0.8-0.8,3.3-0.9,4.4C384.5,94,384.7,94.2,385,94.2z"/>
	<path id="XMLID_114_" class="st8" d="M267.6,115.7H395l-1.7-15.2c-0.1-0.5-0.5-0.9-1-0.9h-7.5c-0.5,0-0.9,0.3-1,0.8l-1.6,7.5
		l-70.2-3.6l-53.9-11.8"/>
	<path id="XMLID_113_" class="st8" d="M201.2,115.7H73.8l1.7-15.2c0.1-0.5,0.5-0.9,1-0.9H84c0.4,0,0.8,0.3,0.8,0.7l1.7,7.6l70.2-3.6
		l53.9-11.8"/>
	<path id="XMLID_112_" class="st9" d="M75.5,100.5l-1.7,15.2l125.5-0.2l6.6-21.9l-49.1,10.8L86.5,108l-1.7-7.6
		c-0.1-0.4-0.4-0.7-0.8-0.7h-7.6C75.9,99.7,75.5,100,75.5,100.5z"/>
	<path id="XMLID_111_" class="st9" d="M393.6,100.5l1.7,15.2l-125.5-0.2l-6.6-21.9l49.1,10.8l70.2,3.6l1.6-7.5
		c0.1-0.4,0.5-0.8,1-0.8h7.5C393.1,99.7,393.5,100,393.6,100.5z"/>
	<circle id="XMLID_110_" class="st8" cx="234.2" cy="115.6" r="33.3"/>
	<polyline id="XMLID_109_" points="236.4,151.5 235.8,147.3 220.3,145.3 211.7,139 208,139 	"/>
	<path id="XMLID_108_" class="st10" d="M259.3,139.5l-2.9,8.9c-0.6,2-2.5,3.3-4.5,3.3h-20.7l0.7-4.3l15.5-1.8l8.6-6.1H259.3z"/>
	<circle id="XMLID_107_" class="st11" cx="234.2" cy="115.5" r="28.7"/>
	<path id="XMLID_106_" class="st10" d="M208.5,139.5l2.9,8.9c0.6,2,2.5,3.3,4.5,3.3h20.7l-0.7-4.3l-15.5-1.8l-8.6-6.1H208.5z"/>
	<path id="XMLID_105_" class="st10" d="M259.9,91.4l-2.9-8.9c-0.6-2-2.5-3.3-4.5-3.3h-20.7l0.7,4.3l15.5,1.8l8.6,6.1H259.9z"/>
	<path id="XMLID_104_" class="st10" d="M209,91.4l2.9-8.9c0.6-2,2.5-3.3,4.5-3.3h20.7l-0.7,4.3l-15.5,1.8l-8.6,6.1H209z"/>
	<path id="XMLID_103_" class="st10" d="M76.4,94.2c1.8,0,6.2-0.1,7.5-0.1c0.2,0,0.4-0.2,0.4-0.4c0-1-0.2-3.9-0.7-4.8
		c-1-1.8-4.3-3.1-6.6,0.3c-0.6,0.8-0.8,3.4-0.9,4.5C76,94,76.2,94.2,76.4,94.2z"/>
	<path id="XMLID_102_" class="st10" d="M385,94.2c1.7,0,5.7,0,7.2-0.1c0.3,0,0.6-0.3,0.6-0.6c-0.1-1.2-0.2-3.7-0.7-4.5
		c-1-1.8-4.3-3.1-6.6,0.3c-0.6,0.8-0.8,3.3-0.9,4.4C384.5,94,384.7,94.2,385,94.2z"/>
	<path id="XMLID_101_" class="st9" d="M86.2,93l46.8,1.7c0,0,0,0,0,0l12.8-1.9c0.3,0,0.3-0.5,0-0.5l-13.1-2.6c0,0,0,0-0.1,0
		l-46.5,2.5c-0.1,0-0.3,0.1-0.3,0.3v0.4C86,92.9,86.1,93,86.2,93z"/>
	<path id="XMLID_100_" class="st9" d="M74.6,90.3l-46.8,1.7c0,0,0,0-0.1,0L15,90c-0.3,0-0.3-0.5,0-0.6l13-2.6c0,0,0,0,0.1,0
		l46.5,2.5c0.2,0,0.3,0.1,0.3,0.3V90C74.9,90.1,74.8,90.3,74.6,90.3z"/>
	<path id="XMLID_99_" class="st9" d="M382.4,93l-46.6,1.6c0,0-0.1,0-0.1,0L324,92.9c-0.5-0.1-0.5-0.8,0-0.9l12-2.4c0,0,0.1,0,0.1,0
		l46.3,2.5c0.2,0,0.4,0.2,0.4,0.5l0,0C382.8,92.8,382.6,93,382.4,93z"/>
	<path id="XMLID_98_" class="st9" d="M394.4,90.3l46.6,1.6c0,0,0.1,0,0.1,0l11.7-1.7c0.5-0.1,0.5-0.8,0-0.9l-12-2.4c0,0-0.1,0-0.1,0
		l-46.3,2.5c-0.2,0-0.4,0.2-0.4,0.5l0,0C393.9,90.1,394.1,90.3,394.4,90.3z"/>
</g>
</svg>
