<?xml version="1.0" encoding="utf-8"?>
<!-- Generator: Adobe Illustrator 19.0.0, SVG Export Plug-In . SVG Version: 6.00 Build 0)  -->
<svg version="1.1" id="Layer_1" xmlns="http://www.w3.org/2000/svg" xmlns:xlink="http://www.w3.org/1999/xlink" x="0px" y="0px"
	 viewBox="0 0 459 203" style="enable-background:new 0 0 459 203;" xml:space="preserve">
<style type="text/css">
	.st0{stroke:#FFFFFF;stroke-width:8;stroke-miterlimit:10;}
	.st1{fill:none;stroke:#000000;stroke-width:16;stroke-miterlimit:10;}
	.st2{fill:#FFFFFF;stroke:#FFFFFF;stroke-width:40;stroke-miterlimit:10;}
	.st3{stroke:#FFFFFF;stroke-width:10;stroke-miterlimit:10;}
	.st4{fill:none;stroke:#0071BC;stroke-width:16;stroke-miterlimit:10;}
	.st5{display:none;fill:none;stroke:#000000;stroke-miterlimit:10;}
	.st6{fill:none;stroke:#FFFFFF;stroke-width:25;stroke-miterlimit:10;}
	.st7{stroke:#FFFFFF;stroke-width:16;stroke-miterlimit:10;}
	.st8{fill:none;stroke:#000000;stroke-width:8;stroke-miterlimit:10;}
	.st9{fill:none;stroke:#000000;stroke-miterlimit:10;}
	.st10{stroke:#000000;stroke-width:7;stroke-miterlimit:10;}
</style>
<g id="XMLID_97_">
	<path id="XMLID_122_" class="st0" d="M391.3,77l46.6,1.7c0.1,0,0.3,0,0.4,0l0.6-0.1c2.7-0.4,2.8-4.2,0.1-4.7l-0.9-0.2
		c-0.2,0-0.4-0.1-0.6,0l-46.3,2.5V77z"/>
	<path id="XMLID_121_" class="st1" d="M340.6,165H120.5c-8.9,0-16.3-7.3-16.3-16.3v-95c0-8.9,7.3-16.3,16.3-16.3h220.1
		c8.9,0,16.3,7.3,16.3,16.3v95C356.9,157.7,349.5,165,340.6,165z"/>
	<circle id="WHITE_CIRCLE_BLOCKOUT_2_" class="st2" cx="231.2" cy="102.6" r="78.7"/>
	<polygon id="XMLID_120_" class="st3" points="83,80 130.3,81.7 144.9,79.5 130,76.6 83,79.1 	"/>
	<polygon id="XMLID_119_" class="st3" points="380,80 333.1,81.7 318.8,79.5 333.3,76.6 380,79.1 	"/>
	<circle id="XMLID_118_" class="st4" cx="231.2" cy="102.6" r="78.7"/>
	<circle id="XMLID_117_" class="st5" cx="231.3" cy="102.5" r="73.3"/>
	<path id="XMLID_116_" class="st6" d="M264.6,103H392l-1.7-15.2c-0.1-0.5-0.5-0.9-1-0.9h-7.5c-0.5,0-0.9,0.3-0.9,0.8l-1.6,7.4
		l-70.2-3.6l-53.9-11.7"/>
	<path id="Left_blade_3_" class="st7" d="M73,81.2c1.6,0,8.3-0.1,8.3-0.1s-0.1-4-0.7-5.1c-1-1.8-4.3-3.1-6.6,0.3
		C73.2,77.3,73,81.2,73,81.2z"/>
	<path id="XMLID_115_" class="st6" d="M198.2,103H70.8l1.7-15.2c0.1-0.5,0.5-0.9,1-0.9H81c0.4,0,0.8,0.3,0.8,0.7l1.7,7.5l70.2-3.6
		l53.9-11.7"/>
	<path id="Right_blade_3_" class="st7" d="M382,81.2c1.7,0,5.7,0,7.2-0.1c0.3,0,0.6-0.3,0.6-0.6c-0.1-1.2-0.2-3.7-0.7-4.5
		c-1-1.8-4.3-3.1-6.6,0.3c-0.6,0.8-0.8,3.3-0.9,4.4C381.5,81,381.7,81.2,382,81.2z"/>
	<path id="XMLID_114_" class="st8" d="M264.6,102.7H392l-1.7-15.2c-0.1-0.5-0.5-0.9-1-0.9h-7.5c-0.5,0-0.9,0.3-1,0.8l-1.6,7.5
		l-70.2-3.6l-53.9-11.8"/>
	<path id="XMLID_113_" class="st8" d="M198.2,102.7H70.8l1.7-15.2c0.1-0.5,0.5-0.9,1-0.9H81c0.4,0,0.8,0.3,0.8,0.7l1.7,7.6l70.2-3.6
		l53.9-11.8"/>
	<path id="XMLID_112_" d="M72.5,87.5l-1.7,15.2l125.5-0.2l6.6-21.9l-49.1,10.8L83.5,95l-1.7-7.6c-0.1-0.4-0.4-0.7-0.8-0.7h-7.6
		C72.9,86.7,72.5,87,72.5,87.5z"/>
	<path id="XMLID_111_" d="M390.6,87.5l1.7,15.2l-125.5-0.2l-6.6-21.9l49.1,10.8l70.2,3.6l1.6-7.5c0.1-0.4,0.5-0.8,1-0.8h7.5
		C390.1,86.7,390.5,87,390.6,87.5z"/>
	<circle id="XMLID_110_" class="st8" cx="231.2" cy="102.6" r="33.3"/>
	<polyline id="XMLID_109_" points="233.4,138.5 232.8,134.3 217.3,132.3 208.7,126 205,126 	"/>
	<path id="XMLID_108_" d="M256.3,126.5l-2.9,8.9c-0.6,2-2.5,3.3-4.5,3.3h-20.7l0.7-4.3l15.5-1.8l8.6-6.1H256.3z"/>
	<circle id="XMLID_107_" class="st9" cx="231.2" cy="102.5" r="28.7"/>
	<path id="XMLID_106_" d="M205.5,126.5l2.9,8.9c0.6,2,2.5,3.3,4.5,3.3h20.7l-0.7-4.3l-15.5-1.8l-8.6-6.1H205.5z"/>
	<path id="XMLID_105_" d="M256.9,78.4l-2.9-8.9c-0.6-2-2.5-3.3-4.5-3.3h-20.7l0.7,4.3l15.5,1.8l8.6,6.1H256.9z"/>
	<path id="XMLID_104_" d="M206,78.4l2.9-8.9c0.6-2,2.5-3.3,4.5-3.3h20.7l-0.7,4.3l-15.5,1.8l-8.6,6.1H206z"/>
	<path id="XMLID_103_" class="st10" d="M73.4,81.2c1.8,0,6.2-0.1,7.5-0.1c0.2,0,0.4-0.2,0.4-0.4c0-1-0.2-3.9-0.7-4.8
		c-1-1.8-4.3-3.1-6.6,0.3c-0.6,0.8-0.8,3.4-0.9,4.5C73,81,73.2,81.2,73.4,81.2z"/>
	<path id="XMLID_102_" class="st10" d="M382,81.2c1.7,0,5.7,0,7.2-0.1c0.3,0,0.6-0.3,0.6-0.6c-0.1-1.2-0.2-3.7-0.7-4.5
		c-1-1.8-4.3-3.1-6.6,0.3c-0.6,0.8-0.8,3.3-0.9,4.4C381.5,81,381.7,81.2,382,81.2z"/>
	<path id="XMLID_101_" d="M83.2,80l46.8,1.7c0,0,0,0,0,0l12.8-1.9c0.3,0,0.3-0.5,0-0.5l-13.1-2.6c0,0,0,0-0.1,0l-46.5,2.5
		c-0.1,0-0.3,0.1-0.3,0.3v0.4C83,79.9,83.1,80,83.2,80z"/>
	<path id="XMLID_100_" d="M71.6,77.3l-46.8,1.7c0,0,0,0-0.1,0L12,77c-0.3,0-0.3-0.5,0-0.6l13-2.6c0,0,0,0,0.1,0l46.5,2.5
		c0.2,0,0.3,0.1,0.3,0.3V77C71.9,77.1,71.8,77.3,71.6,77.3z"/>
	<path id="XMLID_99_" d="M379.4,80l-46.6,1.6c0,0-0.1,0-0.1,0L321,79.9c-0.5-0.1-0.5-0.8,0-0.9l12-2.4c0,0,0.1,0,0.1,0l46.3,2.5
		c0.2,0,0.4,0.2,0.4,0.5l0,0C379.8,79.8,379.6,80,379.4,80z"/>
	<path id="XMLID_98_" d="M391.4,77.3l46.6,1.6c0,0,0.1,0,0.1,0l11.7-1.7c0.5-0.1,0.5-0.8,0-0.9l-12-2.4c0,0-0.1,0-0.1,0l-46.3,2.5
		c-0.2,0-0.4,0.2-0.4,0.5l0,0C390.9,77.1,391.1,77.3,391.4,77.3z"/>
</g>
</svg>
