<?xml version="1.0" encoding="utf-8"?>
<!-- Generator: Adobe Illustrator 19.0.0, SVG Export Plug-In . SVG Version: 6.00 Build 0)  -->
<svg version="1.1" id="Layer_1" xmlns="http://www.w3.org/2000/svg" xmlns:xlink="http://www.w3.org/1999/xlink" x="0px" y="0px"
	 viewBox="0 0 1000 500" style="enable-background:new 0 0 1000 500;" xml:space="preserve">
<style type="text/css">
	.st0{fill:#FFFFFF;}
	.st1{fill:#0088FC;}
</style>
<g>
	<path class="st0" d="M174.2,204.7c2.1-0.4,4.3-0.6,6.3-1.2c4.8-1.3,9.6-1.3,14.5-1c9.4,0.6,18.9,1.1,28.4,1.6
		c2.6,0.1,5.3,0.2,7.9,0.4c0.9,0.1,1.3-0.1,1.7-1c1.2-2.5,3.2-4.2,6.1-4.4c2.8-0.3,5.1,0.7,6.6,3.1c0.6,1,0.9,2.2,1.2,3.3
		c0.2,0.6,0.2,1.2,0.3,1.8c1.9-0.1,3.7-0.2,5.6-0.3c12.5-0.7,25.1-1.5,37.6-2c2.4-0.1,4.9,0.6,7.3,1c2.2,0.4,4.5,0.9,6.7,1.3
		c0.4,0.1,0.8,0.2,1.2,0.6c-0.3,0.1-0.5,0.3-0.8,0.3c-3.8,0.6-7.7,1.3-11.5,1.7c-2.4,0.2-4.9,0-7.3-0.1c-6-0.2-11.9-0.4-17.9-0.6
		c-6.7-0.2-13.3-0.5-20-0.7c-0.2,0-0.5,0-0.6,0c-0.3,1.1-0.7,2.2-1,3.1c0.6,1.2,1.3,2.3,1.7,3.6c0.4,1.2,0.6,2.6,0.9,3.9
		c2.9-0.1,5.7-0.3,8.5-0.4c10.6-0.5,21.2-1.1,31.7-1.6c8.6-0.4,17.2-0.7,25.7-1.4c3.7-0.3,7.4-1.4,11-2.2c13.3-2.9,26.7-5.8,40-8.8
		c2-0.4,3.3-1.7,4-3.5c0.4-0.9,0.7-2,1-3c0.9-2.6,2.4-3.7,5.2-3.7c3.4,0,6.8,0.2,10.2-0.2c3.6-0.4,7.2-0.9,10.9-0.4
		c4.7,0.8,9.4,0.5,14.1,0.6c2.7,0,4.2,1.2,5.1,3.7c0.4,1.2,0.8,2.3,1.2,3.5c0.5,1.6,1.5,2.5,3.1,2.8c16.9,3.7,33.8,7.4,50.7,11.1
		c2.4,0.5,4.9,0.4,7.4,0.5c10.2,0.5,20.4,1,30.7,1.5c9.3,0.5,18.5,0.9,27.8,1.4c1,0.1,1.3-0.2,1.5-1.2c0.2-1.3,0.4-2.5,0.9-3.7
		c0.3-0.9,1-1.7,1.6-2.4c-0.3-1-0.7-2-1.1-3.1c-1.6,0-3.5,0-5.4,0c-6,0.2-11.9,0.4-17.9,0.6c-7,0.2-14,0.7-21,0.6
		c-3.4,0-6.9-0.8-10.3-1.3c-0.6-0.1-1.3-0.2-1.9-0.3c-0.3-0.1-0.5-0.4-0.8-0.5c0.3-0.2,0.5-0.5,0.8-0.5c3.4-0.7,6.8-1.6,10.2-2
		c2.6-0.3,5.3-0.1,8,0c9.7,0.5,19.5,1,29.2,1.6c3.1,0.2,6.1,0.3,9.3,0.5c0.1-0.8,0.2-1.5,0.4-2.2c0.7-3.1,2.7-5.2,5.8-6
		c2.9-0.7,5.4,0.2,7.3,2.5c0.4,0.5,0.8,1,0.9,1.5c0.2,1,0.8,1.2,1.8,1.2c11.6-0.7,23.2-1.3,34.8-1.9c2.7-0.1,5.3-0.4,8-0.4
		c1.3,0,2.5,0.3,3.8,0.6c2.8,0.5,5.6,1.1,8.5,1.7c0.3,0.1,0.6,0.4,0.9,0.6c-0.3,0.2-0.6,0.5-0.9,0.5c-3.6,0.6-7.3,1.3-10.9,1.6
		c-2.8,0.2-5.7-0.1-8.5-0.2c-6.5-0.2-13.1-0.5-19.6-0.7c-5.6-0.2-11.3-0.4-17-0.6c-0.1,2.1,0.8,4.3-1,6.1c2,1.3,2.2,3.4,2.4,5.5
		c0.6,5.7,1.3,11.4,1.9,17.2c0,0.1,0,0.2,0,0.6c-0.5,0-1.1,0-1.6,0c-41.5,0-83,0-124.4,0c-0.4,0-0.7,0-1.1,0
		c-0.8-0.1-1.1,0.2-1.3,1.1c-1,6.9-3.7,13.1-8.2,18.5c-1.1,1.4-2.4,2.7-3.7,3.9c-1,0.9-1.6,1.9-2,3.2c-1.1,4-2,5.8-7.3,5.4
		c-4.6-0.3-9.1,0.8-13.7,1c-3.2,0.1-6.4-0.4-9.6-0.7c-1.9-0.1-3.8-0.2-5.7-0.3c-1.6,0-3.3,0-4.9,0c-2,0-3.9-1.1-4.4-3.1
		c-0.8-3.4-2.8-5.9-5.1-8.4c-5.2-5.6-8.1-12.4-9.2-19.9c0-0.2-0.1-0.3-0.1-0.6c-42.5,0-85.1,0-127.8,0c0.3-2.4,0.5-4.6,0.7-6.9
		c0.4-3.9,0.9-7.7,1.3-11.6c0.2-1.9,0.6-3.5,2.1-4.7c-1-1.7-1-1.7-0.7-6c-1.9,0-3.9-0.1-5.8,0c-12.7,0.4-25.4,1-38.1,1.3
		c-2.7,0.1-5.5-0.6-8.2-1c-2-0.3-4-0.6-5.9-0.8C174.2,205.2,174.2,205,174.2,204.7z M421.8,230.9c0-15.6-12.6-28.2-28.1-28.2
		c-15.4,0-28.1,12.5-28.3,27.7c-0.2,14.9,11.6,28.7,28.2,28.7C409.2,259.1,421.8,246.4,421.8,230.9z"/>
	<path class="st0" d="M680.8,285.6c0-37.4,0-74.7,0-112.1c0.5,0,0.9,0,1.4,0c13.4,0,26.7-0.1,40.1,0c10.1,0.1,19.9,2.1,28.7,7.3
		c11.5,6.7,18.5,16.9,22,29.6c2.4,8.7,2.8,17.5,2,26.4c-0.6,7.4-2.3,14.6-5.5,21.3c-6.6,13.6-17.5,21.8-31.9,25.5
		c-5.2,1.3-10.6,1.9-16,1.9c-13.1,0-26.2,0-39.2,0C681.8,285.6,681.4,285.6,680.8,285.6z M704.6,265.2c0.5,0,1,0,1.4,0
		c4.7,0,9.4,0.1,14,0c2.8-0.1,5.7-0.3,8.5-0.8c10.8-1.9,18.1-8.1,21.1-18.8c3-10.8,3-21.8-0.1-32.6c-2-6.9-6-12.3-12.6-15.6
		c-4.7-2.4-9.8-3.4-15.1-3.5c-5.4-0.1-10.8-0.1-16.2-0.1c-0.3,0-0.7,0-1.1,0.1C704.6,217.7,704.6,241.4,704.6,265.2z"/>
	<path class="st0" d="M581.2,285.6c0-25.1,0-50.1,0-75.2c4.7,0.2,9.4,0.4,14.1,0.5c1.9,0.1,3.8,0.2,5.6,0.1c1.3-0.1,2.5-0.5,3.9-0.9
		c0,6.6,0,13.3,0,20.1c0.5,0,0.9,0.1,1.2,0.1c5.5,0,11,0,16.6-0.1c3.4,0,6.6-0.7,9.6-2.3c5.6-3,8.2-7.9,8.8-14c0.3-3,0.1-6-0.8-8.9
		c-2.1-6.6-6.8-10.2-13.4-11.5c-1.8-0.3-3.7-0.5-5.6-0.5c-4.9-0.1-9.8,0-14.8,0c-0.4,0-0.9,0-1.4,0c0,2.1,0,4.1,0,6.4
		c-3.7-2.2-7.6-1.1-11.3-1c-4.1,0.1-8.2,0.4-12.4,0.7c0-8.5,0-16.9,0-25.5c0.4,0,0.8,0,1.3,0c14.7,0,29.4,0,44.2,0
		c7,0,13.8,1.3,20.1,4.6c8.2,4.3,13.8,10.8,16.6,19.6c3,9.1,3,18.3,0,27.3c-4.1,12.1-12.7,19.3-24.9,22.6c-4.4,1.2-9,1.6-13.5,1.6
		c-6.2,0-12.5,0-18.7,0c-0.4,0-0.9,0-1.4,0c0,12.2,0,24.2,0,36.2C597,285.6,589.1,285.6,581.2,285.6z"/>
	<path class="st1" d="M479.1,244.3c-6.5,42.8-44.6,75.7-90.3,73.1c-46.7-2.7-76.2-39.3-80.6-73.2c0.4,0,0.8-0.1,1.3-0.1
		c4.3,0,8.6,0.1,12.8,0c1.3,0,1.8,0.4,2.1,1.7c2.7,12.7,8.5,23.9,17.4,33.4c10.5,11.2,23.3,18.6,38.4,21.3
		c23.4,4.2,44.1-1.7,61.7-17.8c11.1-10.1,18-22.8,21.1-37.5c0.1-0.6,0.3-1.1,1.1-1.1c4.8,0,9.6,0,14.4,0
		C478.7,244.1,478.9,244.2,479.1,244.3z"/>
	<path class="st1" d="M476.9,207.4c-5.3-0.1-10.1-1.8-15.1-2.6c-1.8-0.3-2.7-1.1-3.5-2.8c-10-21.2-26.4-34.7-49.2-40.2
		c-4-1-8.3-1.3-12.4-1.6c-12.1-0.7-23.7,1.8-34.5,7.3c-15.4,7.8-26.6,19.7-33.5,35.5c-0.4,1-1,1.4-2.1,1.6
		c-3.8,0.8-7.6,1.7-11.5,2.4c-1.5,0.3-3,0.3-4.7,0.4c3.6-12.9,9.8-24.2,18.6-34c14.4-16.1,32.4-25.9,53.9-28.4
		C433.5,139.1,468.6,174.9,476.9,207.4z"/>
	<path class="st0" d="M792.9,173.6c7.9,0,15.7,0,23.6,0c0,37.3,0,74.6,0,112c-7.8,0-15.7,0-23.6,0
		C792.9,248.2,792.9,211,792.9,173.6z"/>
	<path class="st0" d="M258.8,244c5.3,0,10.6,0,16,0c0,0.5,0,1,0,1.5c0,10.3,0.1,20.6,0,31c-0.1,5.3,3.9,9.2,9.1,9.1
		c8.8-0.2,17.5,0,26.3-0.1c0.8,0,1.4,0.2,1.9,0.9c3.5,5.2,7.5,10,12,14.5c0.1,0.1,0.2,0.3,0.5,0.6c-0.6,0-1,0-1.5,0
		c-13.3,0-26.6,0-39.8,0c-13.4,0-24.2-10.5-24.4-23.9c-0.2-11,0-21.9,0-32.9C258.7,244.5,258.8,244.2,258.8,244z"/>
	<path class="st0" d="M511.3,243.9c5.4,0,10.6,0,15.9,0c0,0.2,0.1,0.4,0.1,0.6c0,11.4,0.2,22.7-0.1,34.1c-0.2,11.4-9.8,21.4-21,22.6
		c-1.3,0.1-2.6,0.2-3.9,0.2c-12.6,0-25.3,0-37.9,0c-0.4,0-0.8,0-1.5,0c1.4-1.5,2.7-2.6,3.8-4c3-3.7,5.9-7.4,8.8-11.2
		c0.5-0.6,0.9-0.9,1.7-0.9c8.5,0,17,0,25.5,0c5.2,0,8.7-3.5,8.7-8.7c0-10.4,0-20.8,0-31.2C511.3,245,511.3,244.5,511.3,243.9z"/>
	<path class="st0" d="M274.8,200.9c-5.4,0.3-10.7,0.6-15.9,0.9c0-0.2-0.1-0.4-0.1-0.5c0-6.7-0.1-13.4,0.1-20
		c0.4-12.9,11.2-23.3,24.1-23.3c14.3,0,28.6,0,42.9,0c0.3,0,0.7,0,1.2,0c-1.5,1.6-3,2.9-4.4,4.5c-3,3.5-6,7.1-8.9,10.6
		c-0.5,0.7-1,1-1.9,1c-9.4,0-18.8,0-28.2,0c-5.4,0-8.9,3.4-8.9,8.9c0,5.5,0,11,0,16.6C274.8,199.9,274.8,200.3,274.8,200.9z"/>
	<path class="st0" d="M460.1,157.9c0.7,0,1.1,0,1.5,0c13.8,0,27.7,0,41.5,0c13.3,0,24.2,10.8,24.2,24.2c0,6.1,0,12.2,0,18.2
		c0,0.4,0,0.8,0,1.3c-5.4-0.3-10.6-0.6-16-0.9c0-0.5,0-1,0-1.5c0-5.5,0-11,0-16.4c0-5.5-3.4-8.9-8.9-8.9c-9,0-18,0-27,0
		c-0.9,0-1.4-0.3-1.9-1C469.7,167.6,465.3,162.7,460.1,157.9z"/>
	<path class="st0" d="M584.4,345.2c0-5.7,0-11.5,0-17.3c2,0,3.9,0,5.9,0c0,9.3,0,18.5,0,28c-1.6,0-3.2,0-4.8,0
		c-0.3,0-0.7-0.5-0.9-0.8c-3.6-5.2-7.2-10.4-10.8-15.6c-0.2-0.3-0.5-0.7-1-1c0,5.8,0,11.5,0,17.4c-2.1,0-4,0-6,0c0-9.3,0-18.6,0-28
		c1.6,0,3.2-0.1,4.8,0c0.4,0,0.8,0.5,1,0.9c3.5,5.1,7.1,10.3,10.6,15.4c0.3,0.4,0.5,0.8,0.8,1.2
		C584.3,345.2,584.4,345.2,584.4,345.2z"/>
	<path class="st0" d="M782.9,345.2c0-5.7,0-11.5,0-17.3c2,0,4,0,5.9,0c0,9.3,0,18.6,0,28c-1.6,0-3.1,0.1-4.7,0c-0.4,0-0.8-0.5-1-0.8
		c-3.6-5.2-7.2-10.4-10.8-15.7c-0.2-0.3-0.5-0.6-0.9-1.2c0,6.1,0,11.8,0,17.6c-2.1,0-4,0-6,0c0-9.3,0-18.6,0-28c1.6,0,3.2-0.1,4.8,0
		c0.4,0,0.8,0.5,1,0.8c3.5,5.1,7.1,10.3,10.6,15.4c0.3,0.4,0.5,0.8,0.8,1.2C782.7,345.2,782.8,345.2,782.9,345.2z"/>
	<path class="st0" d="M311.6,355.9c-2.1,0-4,0-6,0c0-9.4,0-18.6,0-28.1c2.6,0,5.1,0,7.6,0c2.1,0,4.2,0,6.2,0.3
		c4.1,0.6,6.6,3.2,7.2,7c0.7,4.4-0.8,7.7-4.4,9.8c-0.1,0-0.1,0.1-0.3,0.2c1.9,3.5,3.9,7.1,5.9,10.8c-2.2,0-4.2,0-6.2,0
		c-0.3,0-0.7-0.4-0.9-0.8c-1.5-2.7-3-5.5-4.4-8.2c-0.3-0.6-0.7-1-1.5-0.9c-1,0.1-2.1,0-3.3,0C311.6,349.3,311.6,352.5,311.6,355.9z
		 M311.6,332.6c0,3,0,5.7,0,8.6c1.3,0,2.6,0,3.8,0c0.6,0,1.1,0,1.7-0.1c2.2-0.3,3.5-1.7,3.5-4c0-2.2-1.2-3.9-3.3-4.2
		C315.4,332.7,313.5,332.7,311.6,332.6z"/>
	<path class="st0" d="M394.6,356c0-9.5,0-18.8,0-28.1c4.2,0,8.3,0,12.4,0c0.5,0,1.1,0.2,1.6,0.3c5.7,1.4,9.3,5.7,9.6,11.9
		c0.1,2.3-0.1,4.7-0.7,7c-1.3,4.8-4.6,7.8-9.5,8.5C403.6,356.1,399.1,355.9,394.6,356z M400.6,332.9c0,6,0,11.9,0,18
		c3.7-0.2,7.9,0.8,10.3-3.1c2.3-3.8,2.3-8.1,0-11.9C408.5,332,404.4,333.1,400.6,332.9z"/>
	<path class="st0" d="M761.1,341.1c-0.1,5.3-1.2,9.5-5,12.4c-4.1,3.2-8.7,3.6-13.4,1.8c-4.7-1.7-7.1-5.4-7.8-10.2
		c-0.6-3.9-0.4-7.7,1.5-11.2c2.7-5,7.6-7.2,13.8-6.4c5,0.7,9.2,4.6,10.3,9.8C760.8,338.8,760.9,340.3,761.1,341.1z M755.2,341.5
		c-0.4-1.7-0.7-3.4-1.4-5c-1-2.5-3.2-3.8-5.9-3.8c-2.6,0-4.8,1-5.9,3.4c-1.9,3.9-1.9,7.9,0.1,11.7c1.2,2.3,3.3,3.3,5.9,3.2
		c2.5-0.1,4.4-1.1,5.7-3.4C754.7,345.8,754.9,343.7,755.2,341.5z"/>
	<path class="st0" d="M458.3,336.9c-2.1,0-3.8,0-5.6,0c-0.3,0-0.7-0.3-0.9-0.6c-1.1-2.5-3-3.6-5.6-3.6c-2.5,0-4.7,1-5.9,3.3
		c-2,3.8-2,7.8-0.1,11.6c1.8,3.4,6.7,4.5,9.9,2.3c1.5-1,2.3-2.6,2.3-4.6c-1.9,0-3.9,0-5.9,0c0-1.5,0-3,0-4.4c3.9,0,7.8,0,11.7,0
		c0.2,4.3,0.3,8.5-3,11.8c-3.7,3.7-8.3,4.3-13.1,3c-4.8-1.2-7.7-4.6-8.8-9.4c-1.1-4.8-0.8-9.5,2.1-13.7c5.2-7.7,17.9-7,21.8,1.2
		C457.7,334.8,457.9,335.8,458.3,336.9z"/>
	<path class="st0" d="M362.7,355.9c-2.1,0-4,0-6,0c0-9.3,0-18.6,0-28c2,0,3.9,0,5.9,0c0,3.8,0,7.5,0,11.4c4,0,8,0,12,0
		c0-3.8,0-7.5,0-11.4c2,0,4,0,6,0c0,9.3,0,18.6,0,28c-2,0-3.9,0-5.9,0c0-3.8,0-7.5,0-11.4c-4,0-8,0-12,0
		C362.7,348.2,362.7,352,362.7,355.9z"/>
	<path class="st0" d="M521.5,355.9c-1.9,0-3.8,0-5.7,0c-0.3,0-0.7-0.4-0.8-0.7c-0.5-1.5-1-2.9-1.4-4.4c-0.2-0.8-0.6-1.2-1.6-1.2
		c-2.6,0.1-5.3,0-7.9,0c-0.7,0-1.1,0.2-1.4,1c-0.5,1.8-1.1,3.6-1.7,5.4c-2.1,0-4.2,0-6.4,0c0.5-1.5,1-2.9,1.5-4.3
		c2.6-7.5,5.2-15.1,7.8-22.6c0.3-0.9,0.7-1.2,1.7-1.2c1.9,0.1,3.8,0,5.6,0.1c0.4,0,0.9,0.3,1,0.7c3.1,9,6.2,18,9.3,27
		C521.5,355.6,521.5,355.7,521.5,355.9z M508.3,334.4c-0.1,0-0.2,0-0.2,0c-1.1,3.4-2.2,6.9-3.4,10.4c2.4,0,4.6,0,7,0
		C510.5,341.3,509.4,337.8,508.3,334.4z"/>
	<path class="st0" d="M616.2,336c-1.8,0-3.4,0-5,0c-0.3,0-0.7-0.3-0.7-0.5c-0.5-1.8-1.8-2.7-3.6-2.8c-1.2-0.1-2.6,0.1-3.7,0.4
		c-1.1,0.3-1.8,1.3-1.8,2.6c0,1.2,0.6,2,1.6,2.4c1.7,0.6,3.5,1.1,5.2,1.6c1.6,0.5,3.3,1,4.8,1.8c5,2.9,5.2,10.2,0.1,13.1
		c-4.8,2.8-10,2.6-14.9-0.1c-2.7-1.5-3.7-4.2-3.8-7.3c1.9,0,3.7,0,5.6,0c0.3,0.7,0.5,1.5,0.9,2.1c1.6,2.5,6.9,2.8,8.9,0.6
		c1.2-1.4,1.1-3.3-0.6-4.2c-1.3-0.7-2.8-1-4.3-1.5c-1.9-0.6-3.9-1.1-5.8-1.9c-5.6-2.5-4.8-9.3-1.5-12.2c4.4-3.7,12.6-3.6,16.4,0.4
		C615.5,332,616.2,333.7,616.2,336z"/>
	<path class="st0" d="M792.9,347.1c1.9,0,3.7,0,5.6,0c1.4,3.7,4.4,5.1,8,3.8c1.6-0.6,2.5-1.7,2.6-3c0-1.2-0.7-2.2-2.4-2.8
		c-1.9-0.6-3.9-1.1-5.9-1.7c-1.1-0.3-2.3-0.8-3.3-1.3c-5.4-2.6-4.6-9.2-1.4-12c2.8-2.4,6.2-3,9.7-2.7c2.7,0.2,5.1,1.1,6.9,3.1
		c1.3,1.5,2,3.2,2,5.4c-1.7,0-3.4,0-5.1,0c-0.2,0-0.6-0.3-0.7-0.6c-0.5-1.7-1.7-2.6-3.4-2.8c-1.3-0.1-2.6,0-3.9,0.4
		c-1.1,0.3-1.8,1.2-1.9,2.5c-0.1,1.2,0.6,2.1,1.7,2.5c1.7,0.6,3.5,1,5.2,1.6c1.7,0.6,3.4,1,4.9,1.9c4.9,2.9,4.9,9.9,0.1,13
		c-4.5,2.9-12.6,2.3-16.1-1C793.6,351.8,792.8,349.7,792.9,347.1z"/>
	<path class="st0" d="M299.7,339.3c0,1.7,0,3.3,0,5c-4,0-7.9,0-11.9,0c0,2.2,0,4.4,0,6.7c4.3,0,8.6,0,12.9,0c0,1.7,0,3.2,0,4.9
		c-6.3,0-12.6,0-18.9,0c0-9.3,0-18.6,0-28c6.3,0,12.5,0,18.8,0c0,1.6,0,3.1,0,4.8c-4.2,0-8.5,0-12.8,0c0,2.2,0,4.3,0,6.6
		C291.8,339.3,295.7,339.3,299.7,339.3z"/>
	<path class="st0" d="M645.7,327.8c6.3,0,12.5,0,18.8,0c0,1.6,0,3.2,0,4.9c-4.3,0-8.5,0-12.8,0c0,2.2,0,4.3,0,6.6
		c3.9,0,7.9,0,11.9,0c0,1.7,0,3.3,0,5c-3.9,0-7.9,0-11.9,0c0,2.3,0,4.4,0,6.7c4.3,0,8.5,0,12.9,0c0,1.7,0,3.3,0,4.9
		c-6.3,0-12.6,0-18.9,0C645.7,346.6,645.7,337.3,645.7,327.8z"/>
	<path class="st0" d="M688.2,346.4c2,0,4,0,6,0c-0.4,2.8-1.5,5.1-3.6,6.9c-4,3.4-8.6,3.9-13.4,2.2c-4.8-1.7-7.3-5.4-8.1-10.3
		c-0.7-4.7-0.3-9.3,2.8-13.2c5.4-7,17.8-5.8,21.3,2c0.5,1.1,0.7,2.3,1.1,3.6c-2.2,0-4.1,0-6.1,0c-1.7-4.9-6.8-6.5-10.5-3.3
		c-0.9,0.8-1.6,1.8-2,2.9c-1.2,3.1-1.2,6.3,0,9.4c1.3,3.6,4.9,5.2,8.6,4.1C686.4,350,687.6,348.5,688.2,346.4z"/>
	<path class="st0" d="M626.6,355.9c-2.1,0-3.9,0-5.9,0c0-9.3,0-18.6,0-27.9c0,0,0.1-0.1,0.1-0.1c4.4,0,8.9-0.3,13.3,0.2
		c5.1,0.6,8,4.7,7.7,9.7c-0.3,5.3-3.7,8.7-8.9,9c-2,0.1-4.1,0-6.3,0C626.6,349.9,626.6,352.9,626.6,355.9z M626.7,342
		c1.7,0,3.4,0.1,5,0c2.4-0.2,3.8-1.9,4-4.3c0.1-2.3-1.1-4.3-3.3-4.6c-1.9-0.3-3.8-0.2-5.7-0.4C626.7,335.8,626.7,338.9,626.7,342z"
		/>
	<path class="st0" d="M262.8,346.8c0,3.1,0,6.1,0,9c-2,0-3.9,0-5.9,0c0-9.3,0-18.6,0-28c1.3,0,2.5,0,3.7,0c3.1,0,6.3-0.2,9.3,0.1
		c5.2,0.6,8.3,4.5,8.1,9.7c-0.2,5.4-3.7,8.9-9,9.2C267,346.9,265,346.8,262.8,346.8z M262.9,342c1.6,0,3.2,0.1,4.8,0
		c2.5-0.2,4.2-1.9,4.3-4.5c0.1-2.5-1.3-4.4-3.8-4.7c-1.7-0.2-3.4,0-5.2,0C262.9,335.8,262.9,338.8,262.9,342z"/>
	<path class="st0" d="M495.8,327.9c0,1.6,0,3.2,0,4.9c-2.8,0-5.6,0-8.5,0c0,7.8,0,15.4,0,23.1c-2,0-3.9,0-5.9,0c0-7.6,0-15.3,0-23.1
		c-2.9,0-5.7,0-8.6,0c0-1.7,0-3.3,0-4.9C480.4,327.9,488,327.9,495.8,327.9z"/>
	<path class="st0" d="M711.9,355.9c-2.1,0-3.9,0-5.9,0c0-7.7,0-15.3,0-23c-2.9,0-5.7,0-8.6,0c0-1.7,0-3.3,0-4.9c7.6,0,15.3,0,23,0
		c0,1.6,0,3.1,0,4.8c-2.8,0-5.6,0-8.5,0C711.9,340.5,711.9,348.2,711.9,355.9z"/>
	<path class="st0" d="M338.5,355.8c0-7.6,0-15.3,0-23c-2.9,0-5.7,0-8.6,0c0-1.7,0-3.3,0-4.9c7.6,0,15.3,0,23,0c0,1.6,0,3.1,0,4.8
		c-2.8,0-5.6,0-8.5,0c0,7.8,0,15.4,0,23.1C342.5,355.8,340.6,355.8,338.5,355.8z"/>
	<path class="st0" d="M525.2,355.8c0-9.4,0-18.6,0-28c2,0,3.9,0,6,0c0,7.7,0,15.3,0,23.1c4.1,0,8,0,12,0c0,1.7,0,3.2,0,4.8
		C537.1,355.8,531.2,355.8,525.2,355.8z"/>
	<path class="st0" d="M463,327.9c2,0,3.9,0,5.8,0c0,9.3,0,18.6,0,28c-1.9,0-3.8,0-5.8,0C463,346.6,463,337.3,463,327.9z"/>
	<path class="st0" d="M562,355.9c-2,0-3.9,0-5.9,0c0-9.3,0-18.6,0-28c1.9,0,3.9,0,5.9,0C562,337.2,562,346.5,562,355.9z"/>
	<path class="st0" d="M422.7,327.9c2,0,3.9,0,5.8,0c0,9.3,0,18.6,0,28c-1.9,0-3.8,0-5.8,0C422.7,346.6,422.7,337.3,422.7,327.9z"/>
	<path class="st0" d="M724.4,327.9c1.9,0,3.9,0,5.8,0c0,9.3,0,18.6,0,28c-1.9,0-3.8,0-5.8,0C724.4,346.5,724.4,337.2,724.4,327.9z"
		/>
</g>
</svg>
